<?xml version="1.0" encoding="UTF-8"?>
<svg width="100" height="100" version="1.1" viewBox="0 0 10 10" xmlns:xlink="http://www.w3.org/1999/xlink" xmlns="http://www.w3.org/2000/svg">
  <defs>
    <rect id="cursor" x=".1" y="0.2" width="5" height="9.6" />
  </defs>
  <mask id="p-mask">
    <use xlink:href="#cursor" fill="white" />
    <path id="p" d="m3.5 5.7c-3.42e-4 -0.544-0.142-1.23-0.703-1.46-0.272-0.051-0.89-0.174-0.969 0.0988v2.61c0.405 0.217 1.01 0.318 1.36-0.054 0.271-0.328 0.308-0.787 0.314-1.19zm1.32-0.0423c-0.0037 0.837-0.199 1.8-0.934 2.31-0.606 0.411-1.42 0.359-2.06 0.0516v1.87h-1.3v-6.56c0.793-0.226 1.64-0.326 2.46-0.221 0.817 0.105 1.49 0.75 1.7 1.54 0.0978 0.328 0.135 0.671 0.135 1.01z" fill="black" />
  </mask>
  <use xlink:href="#cursor" fill="#963372" mask="url(#p-mask)" />
  <path d="m5.3 5.7c-0.0393-1.04 0.525-2.14 1.53-2.51 0.78-0.277 1.75-0.188 2.38 0.39 0.661 0.639 0.73 1.63 0.662 2.5h-3.23c-0.0278 0.581 0.541 0.967 1.07 1.02 0.581 0.0872 1.17-0.0427 1.72-0.227 0.06 0.37 0.12 0.741 0.18 1.11-0.983 0.331-2.11 0.422-3.07-0.0314-0.855-0.393-1.26-1.35-1.23-2.25zm3.33-0.519c0.0286-0.493-0.315-1.02-0.836-1.04-0.459-0.0742-0.933 0.201-1.07 0.65-0.0958 0.228-0.14 0.477 0.174 0.392 0.577-1e-6 1.15-2e-6 1.73-3e-6z" fill="#963372" />
</svg>
